<svg t="1650156384568" class="icon" viewBox="0 0 1024 1024" version="1.1" xmlns="http://www.w3.org/2000/svg" p-id="14551" width="200" height="200"><path d="M512 597.333333a42.666667 42.666667 0 1 1-42.666667 42.666667 42.666667 42.666667 0 0 1 42.666667-42.666667m0-85.333333a128 128 0 1 0 128 128 128 128 0 0 0-128-128z m213.333333-128v-42.666667a213.333333 213.333333 0 0 0-422.4-42.666666h88.533334A128 128 0 0 1 640 341.333333v42.666667H213.333333v512h597.333334V384z m0 426.666667H298.666667V469.333333h426.666666z" p-id="14552" fill="#000000"></path></svg>
