<?xml version="1.0" standalone="no"?><!DOCTYPE svg PUBLIC "-//W3C//DTD SVG 1.1//EN" "http://www.w3.org/Graphics/SVG/1.1/DTD/svg11.dtd"><svg t="1648865884345" class="icon" viewBox="0 0 1024 1024" version="1.1" xmlns="http://www.w3.org/2000/svg" p-id="16849" xmlns:xlink="http://www.w3.org/1999/xlink" width="200" height="200"><defs><style type="text/css"></style></defs><path d="M768 597.333333v85.333334h170.666667v85.333333h-170.666667v170.666667h-85.333333V512h256v85.333333zM85.333333 85.333333v384h85.333334V170.666667h519.253333L853.333333 334.08V469.333333h85.333334v-170.666666L725.333333 85.333333z m256 597.333334v-42.666667a128 128 0 0 0-256 0v170.666667a128 128 0 0 0 256 0v-85.333334h-128v85.333334h42.666667a42.666667 42.666667 0 0 1-85.333333 0v-170.666667a42.666667 42.666667 0 0 1 85.333333 0v42.666667z m298.666667-85.333334v-85.333333H384v85.333333h85.333333v256h-85.333333v85.333334h256v-85.333334h-85.333333V597.333333z" p-id="16850"></path></svg>