<?xml version="1.0" standalone="no"?><!DOCTYPE svg PUBLIC "-//W3C//DTD SVG 1.1//EN" "http://www.w3.org/Graphics/SVG/1.1/DTD/svg11.dtd"><svg t="1648865855382" class="icon" viewBox="0 0 1024 1024" version="1.1" xmlns="http://www.w3.org/2000/svg" p-id="16399" xmlns:xlink="http://www.w3.org/1999/xlink" width="200" height="200"><defs><style type="text/css"></style></defs><path d="M640 768v42.666667a128 128 0 0 1-256 0v-170.666667a128 128 0 0 1 256 0v42.666667h-85.333333v-42.666667a42.666667 42.666667 0 0 0-85.333334 0v170.666667a42.666667 42.666667 0 0 0 85.333334 0v-42.666667zM85.333333 85.333333v384h85.333334V170.666667h519.253333L853.333333 334.08V469.333333h85.333334v-170.666666L725.333333 85.333333z m725.333334 512a42.666667 42.666667 0 0 0-42.666667 42.666667v170.666667a42.666667 42.666667 0 0 0 85.333333 0v-170.666667a42.666667 42.666667 0 0 0-42.666666-42.666667m0-85.333333a128 128 0 0 1 128 128v170.666667a128 128 0 0 1-256 0v-170.666667a128 128 0 0 1 128-128z m-469.333334 85.333333v-85.333333H85.333333v85.333333h85.333334v256H85.333333v85.333334h256v-85.333334h-85.333333V597.333333z" p-id="16400"></path></svg>