<?xml version="1.0" standalone="no"?><!DOCTYPE svg PUBLIC "-//W3C//DTD SVG 1.1//EN" "http://www.w3.org/Graphics/SVG/1.1/DTD/svg11.dtd"><svg t="1648865849879" class="icon" viewBox="0 0 1024 1024" version="1.1" xmlns="http://www.w3.org/2000/svg" p-id="16249" xmlns:xlink="http://www.w3.org/1999/xlink" width="200" height="200"><defs><style type="text/css"></style></defs><path d="M512 597.333333a42.666667 42.666667 0 0 1 0 85.333334h-42.666667v-85.333334h42.666667m0-85.333333h-128v426.666667h85.333333v-170.666667h42.666667a128 128 0 0 0 128-128 128 128 0 0 0-128-128zM85.333333 85.333333v384h85.333334V170.666667h519.253333L853.333333 334.08V469.333333h85.333334v-170.666666L725.333333 85.333333z m853.333334 597.333334v-42.666667a128 128 0 0 0-256 0v170.666667a128 128 0 0 0 256 0v-85.333334h-128v85.333334h42.666666a42.666667 42.666667 0 0 1-85.333333 0v-170.666667a42.666667 42.666667 0 0 1 85.333333 0v42.666667z m-682.666667-170.666667v298.666667a42.666667 42.666667 0 0 1-85.333333 0v-42.666667H85.333333v42.666667a128 128 0 0 0 256 0V512z" p-id="16250"></path></svg>