<?xml version="1.0" standalone="no"?><!DOCTYPE svg PUBLIC "-//W3C//DTD SVG 1.1//EN" "http://www.w3.org/Graphics/SVG/1.1/DTD/svg11.dtd"><svg t="1648865804138" class="icon" viewBox="0 0 1024 1024" version="1.1" xmlns="http://www.w3.org/2000/svg" p-id="15499" xmlns:xlink="http://www.w3.org/1999/xlink" width="200" height="200"><defs><style type="text/css"></style></defs><path d="M938.666667 298.666667v640H682.666667v-85.333334h170.666666V334.08L689.92 170.666667H170.666667v298.666666H85.333333V85.333333h640zM512 682.666667a42.666667 42.666667 0 1 1 42.666667-42.666667h85.333333a128 128 0 1 0-128 128 42.666667 42.666667 0 1 1-42.666667 42.666667h-85.333333a128 128 0 1 0 128-128z m-256-170.666667v298.666667a42.666667 42.666667 0 0 1-85.333333 0v-42.666667H85.333333v42.666667a128 128 0 0 0 256 0V512z" p-id="15500"></path></svg>