<?xml version="1.0" standalone="no"?><!DOCTYPE svg PUBLIC "-//W3C//DTD SVG 1.1//EN" "http://www.w3.org/Graphics/SVG/1.1/DTD/svg11.dtd"><svg t="1648865921181" class="icon" viewBox="0 0 1024 1024" version="1.1" xmlns="http://www.w3.org/2000/svg" p-id="17299" xmlns:xlink="http://www.w3.org/1999/xlink" width="200" height="200"><defs><style type="text/css"></style></defs><path d="M725.333333 85.333333H85.333333v384h85.333334V170.666667h519.253333L853.333333 334.08V853.333333h-170.666666v85.333334h256V298.666667zM512 597.333333h-42.666667v256h42.666667a42.666667 42.666667 0 0 0 42.666667-42.666666v-170.666667a42.666667 42.666667 0 0 0-42.666667-42.666667m0-85.333333a128 128 0 0 1 128 128v170.666667a128 128 0 0 1-128 128h-128V512z m-170.666667 0v426.666667h-85.333333V654.293333l-42.666667 56.746667-42.666666-56.746667V938.666667H85.333333V512h85.333334l42.666666 56.96L256 512z" p-id="17300"></path></svg>