<?xml version="1.0" standalone="no"?><!DOCTYPE svg PUBLIC "-//W3C//DTD SVG 1.1//EN" "http://www.w3.org/Graphics/SVG/1.1/DTD/svg11.dtd"><svg t="1648865830189" class="icon" viewBox="0 0 1024 1024" version="1.1" xmlns="http://www.w3.org/2000/svg" p-id="15949" xmlns:xlink="http://www.w3.org/1999/xlink" width="200" height="200"><defs><style type="text/css"></style></defs><path d="M512 597.333333a42.666667 42.666667 0 0 1 0 85.333334h-42.666667v-85.333334h42.666667m0-85.333333h-128v426.666667h85.333333v-170.666667h42.666667a128 128 0 0 0 128-128 128 128 0 0 0-128-128zM725.333333 85.333333H85.333333v384h85.333334V170.666667h519.253333L853.333333 334.08V469.333333h85.333334v-170.666666zM256 512l-42.666667 56.96L170.666667 512H85.333333v426.666667h85.333334V654.293333l42.666666 56.746667 42.666667-56.746667V938.666667h85.333333V512z m597.333333 0v170.666667h-85.333333v-170.666667h-85.333333v256h170.666666v170.666667h85.333334V512z" p-id="15950"></path></svg>