<?xml version="1.0" standalone="no"?><!DOCTYPE svg PUBLIC "-//W3C//DTD SVG 1.1//EN" "http://www.w3.org/Graphics/SVG/1.1/DTD/svg11.dtd"><svg t="1648865763230" class="icon" viewBox="0 0 1024 1024" version="1.1" xmlns="http://www.w3.org/2000/svg" p-id="15049" xmlns:xlink="http://www.w3.org/1999/xlink" width="200" height="200"><defs><style type="text/css"></style></defs><path d="M213.333333 597.333333a42.666667 42.666667 0 0 1 0 85.333334H170.666667v-85.333334h42.666666m0-85.333333H85.333333v426.666667h85.333334v-170.666667h42.666666a128 128 0 0 0 128-128 128 128 0 0 0-128-128zM725.333333 85.333333H85.333333v384h85.333334V170.666667h519.253333L853.333333 334.08V469.333333h85.333334v-170.666666zM469.333333 938.666667V640a42.666667 42.666667 0 0 1 85.333334 0v298.666667h85.333333V640a128 128 0 0 0-256 0v298.666667z m469.333334-256v-42.666667a128 128 0 0 0-256 0v170.666667a128 128 0 0 0 256 0v-85.333334h-128v85.333334h42.666666a42.666667 42.666667 0 0 1-85.333333 0v-170.666667a42.666667 42.666667 0 0 1 85.333333 0v42.666667z" p-id="15050"></path></svg>