<?xml version="1.0" standalone="no"?><!DOCTYPE svg PUBLIC "-//W3C//DTD SVG 1.1//EN" "http://www.w3.org/Graphics/SVG/1.1/DTD/svg11.dtd"><svg t="1648865876192" class="icon" viewBox="0 0 1024 1024" version="1.1" xmlns="http://www.w3.org/2000/svg" p-id="16699" xmlns:xlink="http://www.w3.org/1999/xlink" width="200" height="200"><defs><style type="text/css"></style></defs><path d="M85.333333 85.333333v384h85.333334V170.666667h519.253333L853.333333 334.08V469.333333h85.333334v-170.666666L725.333333 85.333333z m768 597.333334v-42.666667a42.666667 42.666667 0 0 0-85.333333 0v170.666667a42.666667 42.666667 0 0 0 85.333333 0h-42.666666v-85.333334h128v85.333334a128 128 0 0 1-256 0v-170.666667a128 128 0 0 1 256 0v42.666667z m-512 128a128 128 0 0 1-256 0h85.333334a42.666667 42.666667 0 1 0 42.666666-42.666667 128 128 0 1 1 128-128h-85.333333a42.666667 42.666667 0 1 0-42.666667 42.666667 128 128 0 0 1 128 128z m298.666667-298.666667v199.04a170.666667 170.666667 0 0 1-34.133333 102.4L512 938.666667l-93.866667-125.226667a170.666667 170.666667 0 0 1-34.133333-102.4V512h85.333333v199.04a85.333333 85.333333 0 0 0 17.066667 51.2l25.6 34.133333 25.6-34.133333a85.333333 85.333333 0 0 0 17.066667-51.2V512z" p-id="16700"></path></svg>