<?xml version="1.0" standalone="no"?><!DOCTYPE svg PUBLIC "-//W3C//DTD SVG 1.1//EN" "http://www.w3.org/Graphics/SVG/1.1/DTD/svg11.dtd"><svg t="1648865756455" class="icon" viewBox="0 0 1024 1024" version="1.1" xmlns="http://www.w3.org/2000/svg" p-id="14899" xmlns:xlink="http://www.w3.org/1999/xlink" width="200" height="200"><defs><style type="text/css"></style></defs><path d="M341.333333 597.333333h-85.333333v341.333334H170.666667V597.333333H85.333333v-85.333333h256z m597.333334-85.333333H682.666667v85.333333h85.333333v341.333334h85.333333V597.333333h85.333334zM725.333333 85.333333H85.333333v384h85.333334V170.666667h519.253333L853.333333 334.08V469.333333h85.333334v-170.666666z m-85.333333 426.666667h-85.333333v128a42.666667 42.666667 0 0 1-85.333334 0v-128h-85.333333v128a126.506667 126.506667 0 0 0 32.853333 85.333333A126.506667 126.506667 0 0 0 384 810.666667v128h85.333333v-128a42.666667 42.666667 0 0 1 85.333334 0v128h85.333333v-128a126.506667 126.506667 0 0 0-32.853333-85.333334A126.506667 126.506667 0 0 0 640 640z" p-id="14900"></path></svg>