<?xml version="1.0" standalone="no"?><!DOCTYPE svg PUBLIC "-//W3C//DTD SVG 1.1//EN" "http://www.w3.org/Graphics/SVG/1.1/DTD/svg11.dtd"><svg t="1648865823241" class="icon" viewBox="0 0 1024 1024" version="1.1" xmlns="http://www.w3.org/2000/svg" p-id="15799" xmlns:xlink="http://www.w3.org/1999/xlink" width="200" height="200"><defs><style type="text/css"></style></defs><path d="M938.666667 853.333333v85.333334H682.666667V512h85.333333v341.333333zM725.333333 85.333333H85.333333v384h85.333334V170.666667h519.253333L853.333333 334.08V469.333333h85.333334v-170.666666zM341.333333 512h-85.333333v128a42.666667 42.666667 0 0 1-85.333333 0v-128H85.333333v128a126.506667 126.506667 0 0 0 32.853334 85.333333A126.506667 126.506667 0 0 0 85.333333 810.666667v128h85.333334v-128a42.666667 42.666667 0 0 1 85.333333 0v128h85.333333v-128a126.506667 126.506667 0 0 0-32.853333-85.333334A126.506667 126.506667 0 0 0 341.333333 640z m213.333334 0l-42.666667 56.96L469.333333 512h-85.333333v426.666667h85.333333V654.293333l42.666667 56.746667 42.666667-56.746667V938.666667h85.333333V512z" p-id="15800"></path></svg>