<?xml version="1.0" standalone="no"?><!DOCTYPE svg PUBLIC "-//W3C//DTD SVG 1.1//EN" "http://www.w3.org/Graphics/SVG/1.1/DTD/svg11.dtd"><svg t="1648865893605" class="icon" viewBox="0 0 1024 1024" version="1.1" xmlns="http://www.w3.org/2000/svg" p-id="16999" xmlns:xlink="http://www.w3.org/1999/xlink" width="200" height="200"><defs><style type="text/css"></style></defs><path d="M810.666667 597.333333a42.666667 42.666667 0 0 1 0 85.333334h-42.666667v-85.333334h42.666667m0-85.333333h-128v426.666667h85.333333v-170.666667h42.666667a128 128 0 0 0 128-128 128 128 0 0 0-128-128z m42.666666-177.92V469.333333h85.333334v-170.666666L725.333333 85.333333H85.333333v384h85.333334V170.666667h519.253333zM280.106667 512H85.333333v85.333333h141.653334a6.186667 6.186667 0 0 1 5.333333 9.6l-138.666667 240.213334A61.013333 61.013333 0 0 0 146.56 938.666667H341.333333v-85.333334H199.68a6.186667 6.186667 0 0 1-5.333333-9.6l138.666666-240.213333A61.013333 61.013333 0 0 0 280.106667 512zM640 597.333333v-85.333333H384v85.333333h85.333333v256h-85.333333v85.333334h256v-85.333334h-85.333333V597.333333z" p-id="17000"></path></svg>